<mxfile host="65bd71144e">
    <diagram id="R90MFryQqma7ZkyxXE4n" name="Página-1">
        <mxGraphModel dx="1031" dy="1813" grid="1" gridSize="10" guides="1" tooltips="1" connect="1" arrows="1" fold="1" page="1" pageScale="1" pageWidth="827" pageHeight="1169" math="0" shadow="0">
            <root>
                <mxCell id="0"/>
                <mxCell id="1" parent="0"/>
                <mxCell id="6" value="Usuário" style="swimlane;fontStyle=0;childLayout=stackLayout;horizontal=1;startSize=26;fillColor=none;horizontalStack=0;resizeParent=1;resizeParentMax=0;resizeLast=0;collapsible=1;marginBottom=0;html=1;" vertex="1" parent="1">
                    <mxGeometry x="50" y="-50" width="140" height="180" as="geometry"/>
                </mxCell>
                <mxCell id="7" value="-nome:string&lt;br&gt;-id:string&lt;br&gt;-email:string&lt;br&gt;-senha:string&lt;br&gt;-biblioteca:array string&lt;br&gt;-operações:string&lt;br&gt;-carrinho:array string&lt;br&gt;-foto: string" style="text;strokeColor=none;fillColor=none;align=left;verticalAlign=top;spacingLeft=4;spacingRight=4;overflow=hidden;rotatable=0;points=[[0,0.5],[1,0.5]];portConstraint=eastwest;whiteSpace=wrap;html=1;" vertex="1" parent="6">
                    <mxGeometry y="26" width="140" height="154" as="geometry"/>
                </mxCell>
                <mxCell id="17" value="dev" style="swimlane;fontStyle=0;childLayout=stackLayout;horizontal=1;startSize=26;fillColor=none;horizontalStack=0;resizeParent=1;resizeParentMax=0;resizeLast=0;collapsible=1;marginBottom=0;html=1;" vertex="1" parent="1">
                    <mxGeometry x="750" y="-10" width="140" height="140" as="geometry"/>
                </mxCell>
                <mxCell id="18" value="-nome:string&lt;br&gt;-id:string&lt;br&gt;-id_empresa:string&lt;br&gt;-senha:string&lt;br&gt;-email:array string&lt;br&gt;-jogos:array string&lt;br&gt;-lucro:float" style="text;strokeColor=none;fillColor=none;align=left;verticalAlign=top;spacingLeft=4;spacingRight=4;overflow=hidden;rotatable=0;points=[[0,0.5],[1,0.5]];portConstraint=eastwest;whiteSpace=wrap;html=1;" vertex="1" parent="17">
                    <mxGeometry y="26" width="140" height="114" as="geometry"/>
                </mxCell>
                <mxCell id="19" value="Empresa" style="swimlane;fontStyle=0;childLayout=stackLayout;horizontal=1;startSize=26;fillColor=none;horizontalStack=0;resizeParent=1;resizeParentMax=0;resizeLast=0;collapsible=1;marginBottom=0;html=1;" vertex="1" parent="1">
                    <mxGeometry x="910" y="-10" width="170" height="150" as="geometry"/>
                </mxCell>
                <mxCell id="20" value="-nome:string&lt;br&gt;-id:string&lt;br&gt;-lucro:float&lt;br&gt;-senha:string&lt;br&gt;-desenvolvedores:array string&lt;br&gt;-logo:string&lt;br&gt;-jogos:array string&lt;br&gt;-descrição:string" style="text;strokeColor=none;fillColor=none;align=left;verticalAlign=top;spacingLeft=4;spacingRight=4;overflow=hidden;rotatable=0;points=[[0,0.5],[1,0.5]];portConstraint=eastwest;whiteSpace=wrap;html=1;" vertex="1" parent="19">
                    <mxGeometry y="26" width="170" height="124" as="geometry"/>
                </mxCell>
                <mxCell id="21" value="operações" style="swimlane;fontStyle=0;childLayout=stackLayout;horizontal=1;startSize=26;fillColor=none;horizontalStack=0;resizeParent=1;resizeParentMax=0;resizeLast=0;collapsible=1;marginBottom=0;html=1;" vertex="1" parent="1">
                    <mxGeometry x="430" y="260" width="140" height="110" as="geometry"/>
                </mxCell>
                <mxCell id="22" value="-id:string&lt;br&gt;-id_usuário:string&lt;br&gt;-id_empresa:string&lt;br&gt;-preço:float&lt;br&gt;-tipo:string&lt;br&gt;" style="text;strokeColor=none;fillColor=none;align=left;verticalAlign=top;spacingLeft=4;spacingRight=4;overflow=hidden;rotatable=0;points=[[0,0.5],[1,0.5]];portConstraint=eastwest;whiteSpace=wrap;html=1;" vertex="1" parent="21">
                    <mxGeometry y="26" width="140" height="84" as="geometry"/>
                </mxCell>
                <mxCell id="25" value="carrinho" style="swimlane;fontStyle=0;childLayout=stackLayout;horizontal=1;startSize=26;fillColor=none;horizontalStack=0;resizeParent=1;resizeParentMax=0;resizeLast=0;collapsible=1;marginBottom=0;html=1;" vertex="1" parent="1">
                    <mxGeometry x="240" y="-50" width="140" height="100" as="geometry"/>
                </mxCell>
                <mxCell id="26" value="-id:string&lt;br&gt;-id_usuário:string&lt;br&gt;-preço:float&lt;br&gt;-id_jogos:array string" style="text;strokeColor=none;fillColor=none;align=left;verticalAlign=top;spacingLeft=4;spacingRight=4;overflow=hidden;rotatable=0;points=[[0,0.5],[1,0.5]];portConstraint=eastwest;whiteSpace=wrap;html=1;" vertex="1" parent="25">
                    <mxGeometry y="26" width="140" height="74" as="geometry"/>
                </mxCell>
                <mxCell id="27" value="jogo" style="swimlane;fontStyle=0;childLayout=stackLayout;horizontal=1;startSize=26;fillColor=none;horizontalStack=0;resizeParent=1;resizeParentMax=0;resizeLast=0;collapsible=1;marginBottom=0;html=1;" vertex="1" parent="1">
                    <mxGeometry x="540" y="-15" width="140" height="150" as="geometry"/>
                </mxCell>
                <mxCell id="28" value="-id:string&lt;br&gt;-Nome:string&lt;br&gt;-id_empresa:string&lt;br&gt;-id_dev:string&lt;br&gt;-preço:float&lt;br&gt;-descrição:string&lt;br&gt;-fotos:array string&lt;br&gt;-data_lançamento:date" style="text;strokeColor=none;fillColor=none;align=left;verticalAlign=top;spacingLeft=4;spacingRight=4;overflow=hidden;rotatable=0;points=[[0,0.5],[1,0.5]];portConstraint=eastwest;whiteSpace=wrap;html=1;" vertex="1" parent="27">
                    <mxGeometry y="26" width="140" height="124" as="geometry"/>
                </mxCell>
                <mxCell id="29" value="biblioteca" style="swimlane;fontStyle=0;childLayout=stackLayout;horizontal=1;startSize=26;fillColor=none;horizontalStack=0;resizeParent=1;resizeParentMax=0;resizeLast=0;collapsible=1;marginBottom=0;html=1;" vertex="1" parent="1">
                    <mxGeometry x="240" y="70" width="140" height="80" as="geometry"/>
                </mxCell>
                <mxCell id="30" value="-id:string&lt;br&gt;-id_jogos:string&lt;br&gt;-id_usuário:string" style="text;strokeColor=none;fillColor=none;align=left;verticalAlign=top;spacingLeft=4;spacingRight=4;overflow=hidden;rotatable=0;points=[[0,0.5],[1,0.5]];portConstraint=eastwest;whiteSpace=wrap;html=1;" vertex="1" parent="29">
                    <mxGeometry y="26" width="140" height="54" as="geometry"/>
                </mxCell>
            </root>
        </mxGraphModel>
    </diagram>
</mxfile>